<svg width="46" height="47" viewBox="0 0 46 47" fill="none" xmlns="http://www.w3.org/2000/svg">
<path d="M22.5665 33.5215L28.8057 39.7607L32.5492 36.0172L22.5665 25.9565L12.5059 36.0172L16.3274 39.7607L22.5665 33.5215Z" fill="#FA8D6B"/>
<path d="M22.5221 38.417L18.7203 42.2258L22.5291 46.0277L26.331 42.2188L22.5221 38.417Z" fill="#FA8D6B"/>
<path d="M41.2424 19.6964L37.4341 23.4983L41.236 27.3066L45.0443 23.5048L41.2424 19.6964Z" fill="#FA8D6B"/>
<path d="M38.7884 29.7781L32.5492 23.5389L38.7884 17.2998L35.0449 13.4783L24.9842 23.5389L35.0449 33.5216L38.7884 29.7781Z" fill="#FA8D6B"/>
<path d="M32.5492 11.0607L28.8057 7.23926L22.5665 13.4784L16.3274 7.23926L12.5059 11.0607L22.5665 21.0434L32.5492 11.0607Z" fill="#FA8D6B"/>
<path d="M20.0709 23.5389L10.0882 13.4783L6.26671 17.2998L12.5059 23.5389L6.26671 29.7781L10.0882 33.5216L20.0709 23.5389Z" fill="#FA8D6B"/>
<path d="M3.8051 19.6988L0 23.5039L3.8051 27.309L7.61021 23.5039L3.8051 19.6988Z" fill="#FA8D6B"/>
<path d="M22.5225 0.981516L18.7173 4.78662L22.5225 8.59173L26.3276 4.78662L22.5225 0.981516Z" fill="#FA8D6B"/>
</svg>
