<svg xmlns="http://www.w3.org/2000/svg" xmlns:svg="http://www.w3.org/2000/svg" version="1.1" id="svg1551" width="160.188" height="336.93201" viewBox="0 0 1038.188 336.93201">
  <defs id="defs1555">
    <clipPath clipPathUnits="userSpaceOnUse" id="clipPath1567">
      <path d="M 0,252.699 H 778.641 V 0 H 0 Z" id="path1565"/>
    </clipPath>
  </defs>
  <g id="g1559" transform="matrix(1.3333333,0,0,-1.3333333,0,336.932)">
    <g id="g1561">
      <g id="g1563" clip-path="url(#clipPath1567)">
        <g id="g1569" transform="translate(84.9659,109.2274)">
          <path d="m 0,0 c -7.639,0 -14.854,1.362 -21.646,4.091 -6.795,2.726 -11.977,6.174 -15.547,10.34 l 2.677,3.57 c 3.371,-3.771 8.158,-6.969 14.357,-9.596 6.197,-2.629 12.869,-3.942 20.011,-3.942 7.238,0 13.189,0.99 17.852,2.975 4.661,1.983 8.108,4.635 10.34,7.959 2.232,3.323 3.348,7.016 3.348,11.084 0,4.761 -1.191,8.579 -3.571,11.456 -2.381,2.875 -5.53,5.157 -9.447,6.844 -3.919,1.685 -8.183,3.073 -12.795,4.165 -4.612,1.091 -9.275,2.255 -13.984,3.496 -4.712,1.24 -9.027,2.828 -12.944,4.762 -3.92,1.934 -7.044,4.611 -9.373,8.033 -2.332,3.422 -3.496,7.86 -3.496,13.316 0,4.661 1.239,9.024 3.719,13.092 2.478,4.066 6.347,7.365 11.604,9.894 5.256,2.528 12,3.793 20.234,3.793 5.653,0 11.232,-0.869 16.737,-2.603 5.505,-1.737 10.192,-4.042 14.06,-6.918 l -2.232,-4.017 c -4.166,3.073 -8.778,5.355 -13.836,6.844 -5.058,1.487 -9.92,2.231 -14.58,2.231 -6.944,0 -12.72,-1.018 -17.333,-3.05 -4.611,-2.034 -8.009,-4.737 -10.19,-8.108 -2.184,-3.373 -3.274,-7.093 -3.274,-11.158 0,-4.861 1.191,-8.729 3.571,-11.605 2.381,-2.878 5.528,-5.158 9.447,-6.844 3.917,-1.687 8.206,-3.075 12.869,-4.165 4.661,-1.092 9.322,-2.257 13.985,-3.497 4.661,-1.241 8.95,-2.851 12.87,-4.835 3.917,-1.985 7.041,-4.637 9.372,-7.959 2.33,-3.324 3.497,-7.662 3.497,-13.018 0,-4.663 -1.265,-9.026 -3.794,-13.092 C 29.979,9.47 26.011,6.197 20.605,3.719 15.198,1.238 8.332,0 0,0" style="fill:#ffffff;fill-opacity:1;fill-rule:nonzero;stroke:none" id="path1571"/>
        </g>
        <g id="g1573" transform="translate(182.4122,187.6317)">
          <path d="m 0,0 c 6.346,0 11.827,-1.241 16.439,-3.72 4.613,-2.48 8.207,-6.125 10.787,-10.934 2.578,-4.813 3.868,-10.738 3.868,-17.78 V -77.81 h -4.909 v 45.08 c 0,9.223 -2.332,16.215 -6.994,20.976 -4.663,4.762 -11.209,7.142 -19.637,7.142 -6.449,0 -12.002,-1.29 -16.663,-3.868 -4.663,-2.581 -8.234,-6.249 -10.712,-11.009 -2.481,-4.762 -3.719,-10.318 -3.719,-16.663 V -77.81 h -4.91 V 32.582 h 4.91 v -54.898 l -0.744,1.338 c 2.38,6.447 6.322,11.554 11.827,15.325 C -14.952,-1.886 -8.134,0 0,0" style="fill:#ffffff;fill-opacity:1;fill-rule:nonzero;stroke:none" id="path1575"/>
        </g>
        <path d="m 245.642,187.036 h 4.909 v -77.214 h -4.909 z m 2.38,20.233 c -1.291,0 -2.432,0.496 -3.422,1.489 -0.993,0.99 -1.488,2.083 -1.488,3.273 0,1.388 0.495,2.552 1.488,3.496 0.99,0.942 2.131,1.413 3.422,1.413 1.387,0 2.552,-0.471 3.496,-1.413 0.941,-0.944 1.414,-2.059 1.414,-3.347 0,-1.29 -0.473,-2.432 -1.414,-3.422 -0.944,-0.993 -2.109,-1.489 -3.496,-1.489" style="fill:#ffffff;fill-opacity:1;fill-rule:nonzero;stroke:none" id="path1577"/>
        <g id="g1579" transform="translate(320.0274,187.6317)">
          <path d="m 0,0 c 6.346,0 11.827,-1.241 16.439,-3.72 4.613,-2.48 8.207,-6.125 10.787,-10.934 2.578,-4.813 3.868,-10.738 3.868,-17.78 V -77.81 h -4.909 v 45.08 c 0,9.223 -2.332,16.215 -6.994,20.976 -4.663,4.762 -11.209,7.142 -19.637,7.142 -6.449,0 -12.002,-1.29 -16.663,-3.868 -4.663,-2.581 -8.234,-6.249 -10.712,-11.009 -2.481,-4.762 -3.719,-10.318 -3.719,-16.663 V -77.81 h -4.91 v 77.214 h 4.761 v -21.72 l -0.595,1.338 c 2.38,6.447 6.322,11.554 11.827,15.325 C -14.952,-1.886 -8.134,0 0,0" style="fill:#ffffff;fill-opacity:1;fill-rule:nonzero;stroke:none" id="path1581"/>
        </g>
        <g id="g1583" transform="translate(401.8535,109.3759)">
          <path d="m 0,0 c -6.349,0 -12.3,0.967 -17.854,2.901 -5.555,1.934 -9.769,4.389 -12.645,7.365 l 2.38,3.868 c 2.876,-2.58 6.793,-4.862 11.754,-6.844 4.958,-1.985 10.463,-2.976 16.513,-2.976 8.629,0 14.853,1.488 18.672,4.463 3.817,2.976 5.728,6.844 5.728,11.605 0,3.471 -0.944,6.197 -2.827,8.182 -1.885,1.984 -4.366,3.52 -7.439,4.613 -3.075,1.09 -6.471,1.957 -10.191,2.603 -3.719,0.644 -7.464,1.388 -11.233,2.232 -3.77,0.842 -7.192,1.983 -10.265,3.422 -3.075,1.436 -5.556,3.445 -7.439,6.025 -1.884,2.578 -2.826,6 -2.826,10.266 0,3.668 1.016,7.041 3.05,10.117 2.031,3.072 5.133,5.579 9.298,7.512 4.166,1.935 9.47,2.902 15.919,2.902 4.76,0 9.545,-0.721 14.357,-2.157 4.81,-1.44 8.652,-3.348 11.529,-5.729 l -2.529,-3.868 c -3.075,2.478 -6.671,4.315 -10.786,5.505 -4.116,1.19 -8.356,1.785 -12.72,1.785 -8.034,0 -13.887,-1.538 -17.555,-4.611 -3.671,-3.077 -5.505,-6.844 -5.505,-11.308 0,-3.57 0.941,-6.423 2.827,-8.554 1.883,-2.134 4.363,-3.745 7.438,-4.836 3.074,-1.091 6.472,-1.985 10.192,-2.677 3.719,-0.696 7.438,-1.439 11.158,-2.232 3.719,-0.795 7.115,-1.886 10.19,-3.273 3.074,-1.39 5.554,-3.324 7.44,-5.802 1.883,-2.48 2.826,-5.854 2.826,-10.117 0,-3.968 -1.115,-7.513 -3.347,-10.637 C 23.878,6.62 20.605,4.215 16.291,2.529 11.977,0.842 6.546,0 0,0" style="fill:#ffffff;fill-opacity:1;fill-rule:nonzero;stroke:none" id="path1585"/>
        </g>
        <g id="g1587" transform="translate(483.5284,109.3759)">
          <path d="m 0,0 c -7.639,0 -14.382,1.66 -20.233,4.984 -5.854,3.322 -10.465,7.959 -13.836,13.911 -3.373,5.951 -5.059,12.694 -5.059,20.233 0,7.637 1.563,14.38 4.687,20.233 3.124,5.851 7.438,10.463 12.943,13.836 5.505,3.371 11.727,5.059 18.672,5.059 6.843,0 13.017,-1.637 18.522,-4.91 5.504,-3.273 9.819,-7.811 12.944,-13.613 3.124,-5.802 4.686,-12.473 4.686,-20.01 v -0.669 -0.67 h -69.18 V 42.4 h 66.501 l -1.933,-2.38 c 0,6.447 -1.364,12.223 -4.092,17.333 -2.728,5.107 -6.472,9.124 -11.232,12.05 -4.761,2.925 -10.168,4.389 -16.216,4.389 -6.052,0 -11.456,-1.464 -16.217,-4.389 -4.761,-2.926 -8.506,-6.943 -11.232,-12.05 -2.73,-5.11 -4.092,-10.935 -4.092,-17.481 v -0.893 c 0,-6.746 1.488,-12.72 4.464,-17.927 2.975,-5.207 7.041,-9.276 12.199,-12.199 5.156,-2.927 11.058,-4.39 17.704,-4.39 5.059,0 9.843,0.941 14.357,2.827 4.512,1.883 8.257,4.761 11.233,8.629 l 3.124,-3.273 C 25.241,8.48 21.001,5.33 15.993,3.198 10.984,1.064 5.653,0 0,0" style="fill:#ffffff;fill-opacity:1;fill-rule:nonzero;stroke:none" id="path1589"/>
        </g>
        <g id="g1591" transform="translate(602.1006,109.8222)">
          <path d="M 0,0 -35.111,44.037 -31.54,47.459 6.248,0 Z m -57.428,22.316 v 5.952 L -3.72,77.214 h 6.546 l -33.771,-31.242 -3.274,-2.53 z m -3.57,88.076 h 4.91 V 0 h -4.91 z" style="fill:#ffffff;fill-opacity:1;fill-rule:nonzero;stroke:none" id="path1593"/>
        </g>
        <g id="g1595" transform="translate(674.7022,109.8222)">
          <path d="m 0,0 v 18.002 l -0.149,2.678 v 29.308 c 0,7.637 -2.034,13.439 -6.1,17.407 -4.068,3.966 -9.968,5.951 -17.704,5.951 -5.653,0 -10.812,-0.967 -15.473,-2.901 -4.663,-1.934 -8.679,-4.44 -12.051,-7.513 l -2.677,3.571 c 3.668,3.47 8.182,6.223 13.538,8.257 5.356,2.031 10.959,3.05 16.811,3.05 9.225,0 16.291,-2.358 21.201,-7.068 4.91,-4.712 7.365,-11.63 7.365,-20.754 L 4.761,0 Z m -28.714,-0.446 c -5.853,0 -10.837,0.892 -14.952,2.677 -4.116,1.786 -7.267,4.338 -9.447,7.663 -2.183,3.322 -3.273,7.115 -3.273,11.38 0,3.769 0.893,7.265 2.678,10.49 1.785,3.221 4.735,5.801 8.852,7.736 4.115,1.934 9.645,2.901 16.588,2.901 H 1.637 v -4.017 h -29.905 c -8.431,0 -14.408,-1.588 -17.927,-4.761 -3.522,-3.176 -5.282,-7.192 -5.282,-12.051 0,-5.456 2.033,-9.796 6.1,-13.017 4.066,-3.225 9.72,-4.835 16.961,-4.835 7.141,0 13.041,1.61 17.704,4.835 4.661,3.221 8.183,7.81 10.563,13.761 L 1.487,19.043 C -0.498,13.189 -4.068,8.48 -9.225,4.909 -14.383,1.339 -20.88,-0.446 -28.714,-0.446" style="fill:#ffffff;fill-opacity:1;fill-rule:nonzero;stroke:none" id="path1597"/>
        </g>
        <path d="m 711.597,187.036 h 4.909 v -77.214 h -4.909 z m 2.38,20.233 c -1.29,0 -2.432,0.496 -3.422,1.489 -0.992,0.99 -1.488,2.083 -1.488,3.273 0,1.388 0.496,2.552 1.488,3.496 0.99,0.942 2.132,1.413 3.422,1.413 1.387,0 2.552,-0.471 3.496,-1.413 0.941,-0.944 1.414,-2.059 1.414,-3.347 0,-1.29 -0.473,-2.432 -1.414,-3.422 -0.944,-0.993 -2.109,-1.489 -3.496,-1.489" style="fill:#ffffff;fill-opacity:1;fill-rule:nonzero;stroke:none" id="path1599"/>
        <g id="g1601" transform="translate(193.1353,29.9936)">
          <path d="m 0,0 c -2.515,0 -4.915,0.361 -7.199,1.081 -2.285,0.72 -4.117,1.648 -5.497,2.783 l 2.07,4.646 C -9.338,7.498 -7.744,6.654 -5.842,5.98 -3.941,5.305 -1.994,4.968 0,4.968 c 1.686,0 3.051,0.184 4.094,0.552 1.042,0.368 1.809,0.866 2.3,1.495 0.49,0.628 0.736,1.341 0.736,2.139 0,0.981 -0.353,1.771 -1.058,2.369 -0.706,0.598 -1.618,1.073 -2.737,1.426 -1.12,0.352 -2.362,0.674 -3.726,0.966 -1.365,0.291 -2.73,0.651 -4.094,1.081 -1.365,0.429 -2.615,0.973 -3.749,1.633 -1.135,0.659 -2.047,1.541 -2.737,2.645 -0.69,1.104 -1.035,2.514 -1.035,4.232 0,1.748 0.467,3.35 1.403,4.807 0.935,1.456 2.361,2.622 4.278,3.496 1.916,0.874 4.347,1.311 7.291,1.311 1.932,0 3.848,-0.246 5.75,-0.736 1.901,-0.491 3.557,-1.196 4.968,-2.116 L 9.798,25.622 C 8.356,26.48 6.869,27.117 5.336,27.531 3.802,27.945 2.33,28.152 0.92,28.152 c -1.626,0 -2.96,-0.2 -4.002,-0.598 -1.043,-0.399 -1.802,-0.928 -2.277,-1.587 -0.476,-0.66 -0.713,-1.388 -0.713,-2.185 0,-0.982 0.345,-1.771 1.035,-2.369 0.69,-0.598 1.594,-1.066 2.714,-1.403 1.119,-0.338 2.369,-0.66 3.749,-0.966 1.38,-0.307 2.744,-0.667 4.094,-1.081 1.349,-0.414 2.591,-0.951 3.726,-1.61 1.134,-0.66 2.047,-1.534 2.737,-2.622 0.69,-1.089 1.035,-2.477 1.035,-4.163 C 13.018,7.85 12.55,6.263 11.615,4.807 10.679,3.35 9.246,2.185 7.314,1.311 5.382,0.437 2.944,0 0,0" style="fill:#ffffff;fill-opacity:1;fill-rule:nonzero;stroke:none" id="path1603"/>
        </g>
        <g id="g1605" transform="translate(232.7872,29.9936)">
          <path d="m 0,0 c -4.386,0 -7.828,1.242 -10.327,3.726 -2.5,2.484 -3.749,6.087 -3.749,10.81 V 32.66 h 5.98 V 14.72 c 0,-3.312 0.713,-5.72 2.139,-7.222 1.426,-1.503 3.442,-2.254 6.049,-2.254 2.606,0 4.615,0.751 6.026,2.254 1.41,1.502 2.116,3.91 2.116,7.222 v 17.94 h 5.888 V 14.536 C 14.122,9.813 12.872,6.21 10.373,3.726 7.873,1.242 4.416,0 0,0" style="fill:#ffffff;fill-opacity:1;fill-rule:nonzero;stroke:none" id="path1607"/>
        </g>
        <g id="g1609" transform="translate(272.1626,29.9936)">
          <path d="m 0,0 c -2.515,0 -4.915,0.361 -7.199,1.081 -2.285,0.72 -4.117,1.648 -5.497,2.783 l 2.07,4.646 C -9.338,7.498 -7.744,6.654 -5.842,5.98 -3.941,5.305 -1.994,4.968 0,4.968 c 1.686,0 3.051,0.184 4.094,0.552 1.042,0.368 1.809,0.866 2.3,1.495 0.49,0.628 0.736,1.341 0.736,2.139 0,0.981 -0.353,1.771 -1.058,2.369 -0.706,0.598 -1.618,1.073 -2.737,1.426 -1.12,0.352 -2.362,0.674 -3.726,0.966 -1.365,0.291 -2.73,0.651 -4.094,1.081 -1.365,0.429 -2.615,0.973 -3.749,1.633 -1.135,0.659 -2.047,1.541 -2.737,2.645 -0.69,1.104 -1.035,2.514 -1.035,4.232 0,1.748 0.467,3.35 1.403,4.807 0.935,1.456 2.361,2.622 4.278,3.496 1.916,0.874 4.347,1.311 7.291,1.311 1.932,0 3.848,-0.246 5.75,-0.736 1.901,-0.491 3.557,-1.196 4.968,-2.116 L 9.798,25.622 C 8.356,26.48 6.869,27.117 5.336,27.531 3.802,27.945 2.33,28.152 0.92,28.152 c -1.626,0 -2.96,-0.2 -4.002,-0.598 -1.043,-0.399 -1.802,-0.928 -2.277,-1.587 -0.476,-0.66 -0.713,-1.388 -0.713,-2.185 0,-0.982 0.345,-1.771 1.035,-2.369 0.69,-0.598 1.594,-1.066 2.714,-1.403 1.119,-0.338 2.369,-0.66 3.749,-0.966 1.38,-0.307 2.744,-0.667 4.094,-1.081 1.349,-0.414 2.591,-0.951 3.726,-1.61 1.134,-0.66 2.047,-1.534 2.737,-2.622 0.69,-1.089 1.035,-2.477 1.035,-4.163 C 13.018,7.85 12.55,6.263 11.615,4.807 10.679,3.35 9.246,2.185 7.314,1.311 5.382,0.437 2.944,0 0,0" style="fill:#ffffff;fill-opacity:1;fill-rule:nonzero;stroke:none" id="path1611"/>
        </g>
        <path d="m 320.647,62.654 h 5.934 v -32.2 h -5.934 z m 0.459,-18.401 h -17.572 v 5.106 h 17.572 z M 303.995,30.454 h -5.98 v 32.2 h 5.98 z" style="fill:#ffffff;fill-opacity:1;fill-rule:nonzero;stroke:none" id="path1613"/>
        <path d="m 342.174,62.654 h 5.98 v -32.2 h -5.98 z" style="fill:#ffffff;fill-opacity:1;fill-rule:nonzero;stroke:none" id="path1615"/>
        <path d="m 388.863,47.795 h 16.008 v -4.968 h -16.008 z m 0.46,-17.341 h -5.98 v 32.2 h 23.506 v -5.06 h -17.526 z" style="fill:#ffffff;fill-opacity:1;fill-rule:nonzero;stroke:none" id="path1617"/>
        <g id="g1619" transform="translate(433.3448,29.9936)">
          <path d="m 0,0 c -4.386,0 -7.828,1.242 -10.327,3.726 -2.5,2.484 -3.749,6.087 -3.749,10.81 V 32.66 h 5.98 V 14.72 c 0,-3.312 0.713,-5.72 2.139,-7.222 1.426,-1.503 3.442,-2.254 6.049,-2.254 2.606,0 4.615,0.751 6.026,2.254 1.41,1.502 2.116,3.91 2.116,7.222 v 17.94 h 5.888 V 14.536 C 14.122,9.813 12.872,6.21 10.373,3.726 7.873,1.242 4.416,0 0,0" style="fill:#ffffff;fill-opacity:1;fill-rule:nonzero;stroke:none" id="path1621"/>
        </g>
        <g id="g1623" transform="translate(472.7202,29.9936)">
          <path d="m 0,0 c -2.515,0 -4.915,0.361 -7.199,1.081 -2.285,0.72 -4.117,1.648 -5.497,2.783 l 2.07,4.646 C -9.338,7.498 -7.744,6.654 -5.842,5.98 -3.941,5.305 -1.994,4.968 0,4.968 c 1.686,0 3.051,0.184 4.094,0.552 1.042,0.368 1.809,0.866 2.3,1.495 0.49,0.628 0.736,1.341 0.736,2.139 0,0.981 -0.353,1.771 -1.058,2.369 -0.706,0.598 -1.618,1.073 -2.737,1.426 -1.12,0.352 -2.362,0.674 -3.726,0.966 -1.365,0.291 -2.73,0.651 -4.094,1.081 -1.365,0.429 -2.615,0.973 -3.749,1.633 -1.135,0.659 -2.047,1.541 -2.737,2.645 -0.69,1.104 -1.035,2.514 -1.035,4.232 0,1.748 0.467,3.35 1.403,4.807 0.935,1.456 2.361,2.622 4.278,3.496 1.916,0.874 4.347,1.311 7.291,1.311 1.932,0 3.848,-0.246 5.75,-0.736 1.901,-0.491 3.557,-1.196 4.968,-2.116 L 9.798,25.622 C 8.356,26.48 6.869,27.117 5.336,27.531 3.802,27.945 2.33,28.152 0.92,28.152 c -1.626,0 -2.96,-0.2 -4.002,-0.598 -1.043,-0.399 -1.802,-0.928 -2.277,-1.587 -0.476,-0.66 -0.713,-1.388 -0.713,-2.185 0,-0.982 0.345,-1.771 1.035,-2.369 0.69,-0.598 1.594,-1.066 2.714,-1.403 1.119,-0.338 2.369,-0.66 3.749,-0.966 1.38,-0.307 2.744,-0.667 4.094,-1.081 1.349,-0.414 2.591,-0.951 3.726,-1.61 1.134,-0.66 2.047,-1.534 2.737,-2.622 0.69,-1.089 1.035,-2.477 1.035,-4.163 C 13.018,7.85 12.55,6.263 11.615,4.807 10.679,3.35 9.246,2.185 7.314,1.311 5.382,0.437 2.944,0 0,0" style="fill:#ffffff;fill-opacity:1;fill-rule:nonzero;stroke:none" id="path1625"/>
        </g>
        <path d="m 498.572,62.654 h 5.98 v -32.2 h -5.98 z" style="fill:#ffffff;fill-opacity:1;fill-rule:nonzero;stroke:none" id="path1627"/>
        <g id="g1629" transform="translate(535.2335,35.2377)">
          <path d="m 0,0 c 1.625,0 3.12,0.276 4.485,0.828 1.364,0.552 2.553,1.334 3.565,2.346 1.012,1.012 1.801,2.208 2.369,3.588 0.567,1.38 0.851,2.898 0.851,4.554 0,1.656 -0.276,3.174 -0.828,4.554 C 9.89,17.25 9.1,18.446 8.073,19.458 7.045,20.47 5.849,21.252 4.485,21.804 3.12,22.356 1.625,22.632 0,22.632 c -1.626,0 -3.136,-0.276 -4.531,-0.828 -1.396,-0.552 -2.599,-1.342 -3.611,-2.369 -1.012,-1.028 -1.81,-2.224 -2.392,-3.588 -0.583,-1.365 -0.874,-2.875 -0.874,-4.531 0,-1.626 0.291,-3.128 0.874,-4.508 0.582,-1.38 1.38,-2.584 2.392,-3.611 C -7.13,2.169 -5.927,1.38 -4.531,0.828 -3.136,0.276 -1.626,0 0,0 m 0,-5.244 c -2.484,0 -4.792,0.414 -6.923,1.242 -2.132,0.828 -3.979,1.993 -5.543,3.496 -1.564,1.502 -2.776,3.258 -3.634,5.267 -0.859,2.008 -1.288,4.193 -1.288,6.555 0,2.392 0.429,4.592 1.288,6.601 0.858,2.008 2.07,3.756 3.634,5.244 1.564,1.487 3.404,2.645 5.52,3.473 2.116,0.828 4.431,1.242 6.946,1.242 2.484,0 4.784,-0.407 6.9,-1.219 2.116,-0.813 3.948,-1.963 5.497,-3.45 1.548,-1.488 2.752,-3.243 3.611,-5.267 0.858,-2.024 1.288,-4.232 1.288,-6.624 0,-2.392 -0.43,-4.593 -1.288,-6.601 C 15.149,2.706 13.945,0.95 12.397,-0.552 10.848,-2.055 9.016,-3.213 6.9,-4.025 4.784,-4.837 2.484,-5.244 0,-5.244" style="fill:#ffffff;fill-opacity:1;fill-rule:nonzero;stroke:none" id="path1631"/>
        </g>
        <g id="g1633" transform="translate(565.7774,30.4535)">
          <path d="M 0,0 V 32.2 H 4.922 L 25.116,7.36 H 22.678 V 32.2 h 5.888 V 0 H 23.644 L 3.496,24.84 H 5.934 V 0 Z" style="fill:#ffffff;fill-opacity:1;fill-rule:nonzero;stroke:none" id="path1635"/>
        </g>
      </g>
    </g>
  </g>
</svg>