<svg width="49" height="49" viewBox="0 0 49 49" fill="none" xmlns="http://www.w3.org/2000/svg">
<path d="M15.7345 20.0257C14.3498 20.0257 13.1597 20.1973 12.1413 20.4949C10.8368 20.9984 9.96707 21.7765 9.48645 22.7377C9.73821 22.8865 10.0357 23.0581 10.3447 23.2184C11.4204 22.1999 13.1826 21.5591 15.723 21.5591C17.3937 21.5591 19.2247 21.9482 20.8839 22.7606C21.1357 22.486 21.3531 22.1999 21.5133 21.9138C21.5934 21.7651 21.6735 21.6277 21.7307 21.479C20.0257 20.5635 17.84 20.0257 15.7345 20.0257ZM7.3809 25.5413C7.34657 25.7931 7.32368 26.0563 7.32368 26.3195C7.32368 34.673 20.9183 31.1142 22.0626 37.0418C22.1084 36.7786 22.1427 36.5154 22.1427 36.2408C22.1427 29.3863 8.33069 33.1168 7.3809 25.5413ZM7.3809 25.5413C7.34657 25.7931 7.32368 26.0563 7.32368 26.3195C7.32368 34.673 20.9183 31.1142 22.0626 37.0418C22.1084 36.7786 22.1427 36.5154 22.1427 36.2408C22.1427 29.3863 8.33069 33.1168 7.3809 25.5413ZM15.7345 21.5476C17.4052 21.5476 19.2361 21.9367 20.8954 22.7492C21.1471 22.4745 21.3645 22.1885 21.5248 21.9024C21.6049 21.7536 21.685 21.6163 21.7422 21.4675C20.0142 20.5635 17.84 20.0371 15.7345 20.0371C14.3498 20.0371 13.1597 20.2088 12.1413 20.5063C10.8368 21.0098 9.96707 21.788 9.48645 22.7492C9.73821 22.8979 10.0357 23.0696 10.3447 23.2298C11.4318 22.1999 13.1941 21.5476 15.7345 21.5476ZM24.5 0C10.9626 0 0 10.9626 0 24.5C0 38.0374 10.9626 49 24.5 49C38.0259 49 49 38.0374 49 24.5C49 10.9626 38.0259 0 24.5 0ZM23.8134 47.2034C19.6366 47.0775 15.7345 45.8302 12.4045 43.759C13.2856 43.9192 14.2011 44.0107 15.128 44.0107C20.6322 44.0107 23.39 41.5047 23.8134 38.4493V47.2034ZM23.8134 20.0371C23.7219 20.7008 23.5273 21.3417 23.2069 21.9367C23.0238 22.2686 22.8064 22.589 22.5432 22.8979C22.3944 23.081 22.2228 23.2527 22.0397 23.4129C21.5248 23.8821 20.8839 24.294 20.1401 24.6259C20.1172 24.6373 20.0943 24.6488 20.06 24.6602C19.7625 24.7861 19.4535 24.9005 19.1102 25.0035C18.1032 25.3926 16.8445 25.61 15.2882 25.61C13.1941 25.61 11.1801 25.0607 9.578 24.2025C9.4178 24.1109 9.25759 24.0308 9.10883 23.9393C8.77697 23.7333 8.45656 23.5159 8.17048 23.287C7.90729 23.081 7.66698 22.8636 7.44956 22.6348L6.68286 23.9164C8.41079 25.8045 11.798 27.1319 15.3225 27.1319C20.7008 27.1319 23.4014 24.6831 23.8134 21.6964V36.7557C23.5273 38.9986 21.971 40.9554 19.0072 41.8365C17.9773 42.237 16.6843 42.4659 15.0936 42.4659C12.4159 42.4659 9.86408 41.5848 8.11327 40.3146C4.09668 36.195 1.6135 30.5535 1.6135 24.3398C1.6135 18.5381 3.77627 13.2398 7.33512 9.20037C7.33512 9.28048 7.33512 9.34914 7.33512 9.42924C7.33512 17.7828 20.9297 14.224 22.074 20.1516C22.1084 19.9456 22.1427 19.7396 22.1427 19.5336V19.5222C22.1427 19.465 22.1427 19.4078 22.1427 19.3505C22.1427 18.9386 22.0969 18.5724 22.0054 18.2291C20.5635 13.011 8.76553 15.6658 7.461 9.06305C7.94162 8.52522 8.44512 8.01027 8.97151 7.51822C8.96007 7.66698 8.94862 7.82718 8.94862 7.98739C8.94862 8.28491 8.97151 8.54811 9.02872 8.8113C9.42924 6.59131 11.5119 4.88627 15.6315 4.88627C17.5082 4.88627 19.5908 5.37833 21.3989 6.41966C21.4561 6.45399 22.0626 6.85451 22.4517 7.12915V5.27534C21.5476 4.68029 20.4491 4.21112 19.2819 3.87926C18.1147 3.54741 16.8559 3.37576 15.6315 3.37576C15.517 3.37576 15.4141 3.37576 15.2996 3.37576C17.9201 2.21999 20.7924 1.54484 23.8248 1.45329V20.0371H23.8134ZM25.1866 1.45329C33.174 1.6936 40.1429 6.01915 44.0451 12.4159L25.1866 23.3099V1.45329ZM25.1866 47.2034V25.6901L43.8963 36.4925C39.9598 42.752 33.071 46.9745 25.1866 47.2034ZM25.8732 24.5L44.7202 13.6175C46.4138 16.8101 47.3751 20.4605 47.3751 24.3398C47.3751 28.3106 46.3566 32.0525 44.5715 35.3139L25.8732 24.5ZM22.0626 37.0418C22.1084 36.7786 22.1427 36.5154 22.1427 36.2408C22.1427 29.3863 8.33069 33.1168 7.3809 25.5413C7.34657 25.7931 7.32368 26.0563 7.32368 26.3195C7.32368 34.6616 20.9297 31.1028 22.0626 37.0418ZM12.1413 20.4949C10.8368 20.9984 9.96707 21.7765 9.48645 22.7377C9.73821 22.8865 10.0357 23.0581 10.3447 23.2184C11.4204 22.1999 13.1826 21.5591 15.723 21.5591C17.3937 21.5591 19.2247 21.9482 20.8839 22.7606C21.1357 22.486 21.3531 22.1999 21.5133 21.9138C21.5934 21.7651 21.6735 21.6277 21.7307 21.479C20.0028 20.575 17.8286 20.0486 15.723 20.0486C14.3498 20.0257 13.1597 20.1973 12.1413 20.4949Z" fill="white"/>
<path d="M25.2426 34.042V34.0668L25.255 34.0792L25.2426 34.042Z" fill="black"/>
</svg>
