<svg width="152" height="42" viewBox="0 0 152 42" fill="none" xmlns="http://www.w3.org/2000/svg">
<path d="M9.32455 25.1098C7.61398 25.1098 5.97092 24.8048 4.46292 24.2167C2.9324 23.6285 1.76201 22.8661 0.974243 21.9729L1.55944 21.1887C2.3247 22.0165 3.40506 22.7136 4.80053 23.28C6.196 23.8463 7.70401 24.1295 9.30204 24.1295C10.9226 24.1295 12.273 23.9117 13.3309 23.476C14.3888 23.0403 15.154 22.4739 15.6492 21.7333C16.1443 21.0144 16.3919 20.2084 16.3919 19.3152C16.3919 18.2696 16.1218 17.4418 15.5817 16.81C15.0415 16.1783 14.3437 15.6773 13.4659 15.3287C12.5881 14.9584 11.6203 14.6534 10.585 14.4138C9.54963 14.1742 8.49177 13.9127 7.43391 13.6513C6.37606 13.3899 5.40823 13.0414 4.53044 12.6057C3.65264 12.1918 2.95491 11.6036 2.41473 10.8629C1.87455 10.1441 1.62696 9.18556 1.62696 7.98743C1.62696 6.96357 1.89705 6.02685 2.45974 5.1337C3.02243 4.26233 3.87772 3.54345 5.07062 2.97706C6.26352 2.43246 7.77153 2.14926 9.61715 2.14926C10.9001 2.14926 12.138 2.34532 13.3759 2.71565C14.6138 3.08598 15.6717 3.58702 16.5495 4.21876L16.0543 5.09013C15.109 4.41482 14.0736 3.91378 12.9483 3.6088C11.8004 3.28204 10.72 3.12955 9.66216 3.12955C8.10914 3.12955 6.8037 3.34739 5.76835 3.78308C4.73301 4.21876 3.96775 4.80694 3.47258 5.5476C2.97742 6.28826 2.72983 7.11606 2.72983 7.98743C2.72983 9.05486 2.99992 9.88266 3.54011 10.5144C4.08029 11.1461 4.77802 11.6472 5.65582 11.9957C6.53361 12.3661 7.50144 12.671 8.55929 12.9107C9.61715 13.1503 10.6525 13.4117 11.7104 13.6731C12.7682 13.9345 13.7135 14.3049 14.6138 14.7188C15.4916 15.1544 16.1894 15.7208 16.7295 16.4615C17.2472 17.1804 17.5173 18.1389 17.5173 19.2934C17.5173 20.3173 17.2247 21.254 16.662 22.1472C16.0993 23.0403 15.199 23.7374 13.9836 24.282C12.7457 24.8266 11.1927 25.1098 9.32455 25.1098Z" fill="white"/>
<path d="M31.2469 8.03101C32.6649 8.03101 33.9028 8.29242 34.9382 8.83702C35.9735 9.38163 36.7838 10.1659 37.369 11.2115C37.9542 12.2571 38.2468 13.5424 38.2468 15.0891V24.9791H37.1439V15.1544C37.1439 13.1503 36.6262 11.6254 35.5684 10.5798C34.5105 9.53412 33.0475 9.03308 31.1569 9.03308C29.7164 9.03308 28.456 9.31628 27.3981 9.88266C26.3403 10.4491 25.5525 11.2333 24.9898 12.2789C24.4271 13.3246 24.157 14.5227 24.157 15.9169V25.0009H23.0542V0.929352H24.157V12.8889L23.9995 12.6057C24.5397 11.2115 25.4175 10.0787 26.6554 9.27271C27.8933 8.44491 29.4238 8.03101 31.2469 8.03101Z" fill="white"/>
<path d="M46.0119 3.7395C45.7193 3.7395 45.4717 3.63058 45.2466 3.41274C45.0215 3.1949 44.909 2.95527 44.909 2.69386C44.909 2.38888 45.0215 2.12747 45.2466 1.93141C45.4717 1.73536 45.7193 1.62643 46.0119 1.62643C46.327 1.62643 46.5971 1.73536 46.7996 1.93141C47.0022 2.12747 47.1148 2.38888 47.1148 2.65029C47.1148 2.93349 47.0022 3.17311 46.7996 3.39096C46.5971 3.63058 46.327 3.7395 46.0119 3.7395ZM45.4942 24.9791V8.1617H46.5971V24.9791H45.4942Z" fill="white"/>
<path d="M62.2398 8.03101C63.6578 8.03101 64.8957 8.29242 65.9311 8.83702C66.9664 9.38163 67.7767 10.1659 68.3619 11.2115C68.9471 12.2571 69.2397 13.5424 69.2397 15.0891V24.9791H68.1368V15.1544C68.1368 13.1503 67.6191 11.6254 66.5613 10.5798C65.5034 9.53412 64.0404 9.03308 62.1498 9.03308C60.7093 9.03308 59.4489 9.31627 58.391 9.88266C57.3332 10.4491 56.5454 11.2333 55.9827 12.2789C55.42 13.3246 55.15 14.5227 55.15 15.9169V25.0009H54.0471V8.16171H55.1274V12.8889L54.9924 12.6057C55.5326 11.2115 56.4104 10.0787 57.6483 9.27271C58.8637 8.44491 60.3942 8.03101 62.2398 8.03101Z" fill="white"/>
<path d="M80.651 25.0663C79.2331 25.0663 77.8826 24.8484 76.6222 24.4345C75.3618 24.0206 74.4164 23.476 73.7862 22.8225L74.3264 21.9729C74.9791 22.5393 75.8569 23.0404 76.9823 23.4543C78.1077 23.8899 79.3456 24.1078 80.696 24.1078C82.6317 24.1078 84.0497 23.781 84.905 23.1275C85.7602 22.474 86.1879 21.6462 86.1879 20.6005C86.1879 19.8381 85.9853 19.2499 85.5577 18.8142C85.13 18.3785 84.5673 18.0518 83.8921 17.8121C83.1944 17.5725 82.4291 17.3765 81.5963 17.2458C80.7636 17.1151 79.9083 16.9408 79.0755 16.7665C78.2202 16.5922 77.455 16.3308 76.7572 16.0258C76.0595 15.7209 75.4968 15.2852 75.0917 14.7188C74.664 14.1524 74.4615 13.4117 74.4615 12.475C74.4615 11.669 74.6865 10.9501 75.1367 10.2748C75.5868 9.5995 76.2846 9.05489 77.2299 8.64099C78.1752 8.22709 79.3681 8.00925 80.8086 8.00925C81.8889 8.00925 82.9468 8.16174 84.0497 8.4885C85.13 8.79348 86.0078 9.20738 86.638 9.7302L86.0754 10.5798C85.3776 10.0352 84.5673 9.64306 83.6445 9.38165C82.7217 9.12024 81.7539 8.98954 80.7861 8.98954C78.9855 8.98954 77.6575 9.3163 76.8247 9.99161C75.992 10.6669 75.5868 11.4729 75.5868 12.4532C75.5868 13.2375 75.7894 13.8474 76.217 14.3267C76.6447 14.7841 77.2074 15.1327 77.8826 15.3723C78.5803 15.6119 79.3456 15.808 80.1784 15.9605C81.0112 16.113 81.8439 16.2655 82.6992 16.4397C83.532 16.614 84.2973 16.8536 84.995 17.1586C85.6927 17.4636 86.2554 17.8775 86.6605 18.4221C87.0882 18.9667 87.2908 19.7074 87.2908 20.6223C87.2908 21.4937 87.0432 22.2561 86.548 22.9314C86.0528 23.6067 85.3101 24.1296 84.3423 24.4999C83.3519 24.892 82.114 25.0663 80.651 25.0663Z" fill="white"/>
<path d="M99.0397 25.0663C97.3291 25.0663 95.7986 24.6959 94.4932 23.9771C93.1652 23.2582 92.1299 22.2343 91.3871 20.949C90.6219 19.642 90.2393 18.1824 90.2393 16.5486C90.2393 14.893 90.5994 13.4117 91.2971 12.1482C91.9948 10.863 92.9627 9.86088 94.2006 9.142C95.4385 8.40134 96.834 8.03101 98.4095 8.03101C99.94 8.03101 101.335 8.37955 102.573 9.09843C103.811 9.81731 104.779 10.7976 105.477 12.0611C106.175 13.3246 106.535 14.7841 106.535 16.4179C106.535 16.4615 106.535 16.5051 106.535 16.5704C106.535 16.614 106.535 16.6793 106.535 16.7229H90.9595V15.8515H105.927L105.499 16.3744C105.499 14.9802 105.184 13.7167 104.577 12.6057C103.969 11.4947 103.114 10.6233 102.056 9.9698C100.975 9.33806 99.7599 9.0113 98.4095 9.0113C97.0365 9.0113 95.8211 9.33806 94.7633 9.9698C93.6829 10.6015 92.8501 11.4729 92.2424 12.6057C91.6347 13.7167 91.3196 14.9802 91.3196 16.4179V16.614C91.3196 18.0735 91.6572 19.3806 92.3325 20.5134C93.0077 21.6461 93.908 22.5393 95.0784 23.171C96.2488 23.8028 97.5767 24.1295 99.0622 24.1295C100.21 24.1295 101.268 23.9335 102.303 23.5196C103.316 23.1057 104.171 22.4739 104.824 21.6461L105.522 22.365C104.734 23.28 103.789 23.9553 102.663 24.4127C101.493 24.8484 100.3 25.0663 99.0397 25.0663Z" fill="white"/>
<path d="M111.982 24.9791V0.929352H113.084V24.9791H111.982ZM112.792 20.1212V18.8142L124.878 8.16171H126.341L118.734 14.9584L117.991 15.503L112.792 20.1212ZM125.711 24.9791L117.811 15.3941L118.621 14.6534L127.129 25.0009H125.711V24.9791Z" fill="white"/>
<path d="M135.592 25.0663C134.264 25.0663 133.161 24.8702 132.216 24.4781C131.293 24.086 130.573 23.5414 130.1 22.8007C129.605 22.0819 129.357 21.2541 129.357 20.3173C129.357 19.4895 129.56 18.7271 129.965 18.03C130.37 17.3329 131.023 16.7665 131.968 16.3526C132.891 15.9387 134.129 15.7209 135.705 15.7209H142.434V16.5922H135.705C133.814 16.5922 132.463 16.9408 131.676 17.6379C130.888 18.335 130.483 19.2063 130.483 20.2738C130.483 21.4719 130.933 22.4086 131.856 23.1057C132.779 23.8028 134.039 24.1514 135.682 24.1514C137.28 24.1514 138.608 23.8028 139.666 23.1057C140.724 22.4086 141.511 21.4065 142.052 20.0995L142.412 20.8184C141.962 22.1036 141.151 23.1275 140.003 23.8899C138.811 24.696 137.348 25.0663 135.592 25.0663ZM142.052 24.9792V21.058L142.029 20.4698V14.087C142.029 12.4314 141.579 11.168 140.656 10.2966C139.733 9.42522 138.405 8.98954 136.672 8.98954C135.389 8.98954 134.242 9.20738 133.184 9.62128C132.126 10.0352 131.226 10.5798 130.46 11.2551L129.853 10.4709C130.685 9.70842 131.698 9.12024 132.891 8.66277C134.107 8.22709 135.367 8.00925 136.672 8.00925C138.743 8.00925 140.341 8.53207 141.444 9.55593C142.547 10.5798 143.11 12.0829 143.11 14.087V24.9792H142.052Z" fill="white"/>
<path d="M150.897 3.7395C150.605 3.7395 150.357 3.63058 150.132 3.41274C149.907 3.1949 149.794 2.95527 149.794 2.69386C149.794 2.38888 149.907 2.12747 150.132 1.93141C150.357 1.73536 150.605 1.62643 150.897 1.62643C151.212 1.62643 151.482 1.73536 151.685 1.93141C151.887 2.12747 152 2.38888 152 2.65029C152 2.93349 151.887 3.17311 151.685 3.39096C151.482 3.63058 151.212 3.7395 150.897 3.7395ZM150.357 24.9791V8.1617H151.46V24.9791H150.357Z" fill="white"/>
<path d="M41.4123 41.2426C40.9625 41.2426 40.5306 41.173 40.1167 41.0511C39.7029 40.9292 39.379 40.7724 39.127 40.5634L39.5049 39.7623C39.7389 39.9364 40.0268 40.0932 40.3687 40.1977C40.7105 40.3196 41.0524 40.3718 41.4123 40.3718C41.7182 40.3718 41.9701 40.337 42.1501 40.2673C42.33 40.1977 42.474 40.1106 42.564 40.0061C42.6539 39.9016 42.6899 39.7797 42.6899 39.6404C42.6899 39.4662 42.6179 39.3269 42.492 39.2224C42.366 39.1179 42.2041 39.0308 42.0061 38.9786C41.8082 38.9089 41.5743 38.8566 41.3403 38.8044C41.0884 38.7521 40.8545 38.6825 40.6026 38.6128C40.3507 38.5432 40.1347 38.4387 39.9368 38.3342C39.7389 38.2123 39.5769 38.0729 39.4509 37.8813C39.325 37.6898 39.271 37.4459 39.271 37.1499C39.271 36.8538 39.361 36.5577 39.5229 36.3139C39.6849 36.0527 39.9548 35.8611 40.2967 35.7043C40.6386 35.5476 41.0704 35.4779 41.6103 35.4779C41.9522 35.4779 42.294 35.5128 42.6539 35.5998C42.9958 35.6869 43.3017 35.8088 43.5537 35.9656L43.2118 36.7667C42.9598 36.61 42.6899 36.5055 42.402 36.4358C42.1321 36.3662 41.8622 36.3313 41.6103 36.3313C41.3224 36.3313 41.0704 36.3662 40.8905 36.4358C40.7105 36.5055 40.5666 36.5926 40.4766 36.7145C40.3866 36.8364 40.3507 36.9583 40.3507 37.0976C40.3507 37.2718 40.4046 37.4111 40.5306 37.5156C40.6566 37.6201 40.8185 37.7072 41.0165 37.7594C41.2144 37.8117 41.4483 37.8813 41.6822 37.9336C41.9342 37.9858 42.1681 38.0555 42.42 38.1252C42.6539 38.1948 42.8879 38.2993 43.0858 38.4038C43.2837 38.5257 43.4457 38.6651 43.5716 38.8566C43.6976 39.0482 43.7516 39.292 43.7516 39.5881C43.7516 39.8842 43.6616 40.1628 43.4997 40.4241C43.3377 40.6853 43.0678 40.8769 42.7259 41.0337C42.384 41.1556 41.9342 41.2426 41.4123 41.2426Z" fill="white"/>
<path d="M48.5381 41.2427C47.7463 41.2427 47.1345 41.0337 46.6847 40.5983C46.2348 40.1629 46.0189 39.5359 46.0189 38.7173V35.565H47.0985V38.6825C47.0985 39.2572 47.2245 39.6752 47.4764 39.9365C47.7283 40.1977 48.0882 40.337 48.5561 40.337C49.0239 40.337 49.3838 40.1977 49.6357 39.9365C49.8877 39.6752 50.0136 39.2572 50.0136 38.6825V35.565H51.0753V38.7173C51.0753 39.5359 50.8594 40.1629 50.4095 40.5983C49.9596 41.0163 49.3298 41.2427 48.5381 41.2427Z" fill="white"/>
<path d="M55.6279 41.2426C55.178 41.2426 54.7461 41.173 54.3323 41.0511C53.9184 40.9292 53.5945 40.7724 53.3426 40.5634L53.7205 39.7623C53.9544 39.9364 54.2423 40.0932 54.5842 40.1977C54.9261 40.3196 55.268 40.3718 55.6279 40.3718C55.9338 40.3718 56.1857 40.337 56.3656 40.2673C56.5456 40.1977 56.6895 40.1106 56.7795 40.0061C56.8695 39.9016 56.9055 39.7797 56.9055 39.6404C56.9055 39.4662 56.8335 39.3269 56.7075 39.2224C56.5816 39.1179 56.4196 39.0308 56.2217 38.9786C56.0237 38.9089 55.7898 38.8566 55.5559 38.8044C55.304 38.7521 55.07 38.6825 54.8181 38.6128C54.5662 38.5432 54.3503 38.4387 54.1523 38.3342C53.9544 38.2123 53.7924 38.0729 53.6665 37.8813C53.5405 37.6898 53.4865 37.4459 53.4865 37.1499C53.4865 36.8538 53.5765 36.5577 53.7384 36.3139C53.9004 36.0527 54.1703 35.8611 54.5122 35.7043C54.8541 35.5476 55.286 35.4779 55.8258 35.4779C56.1677 35.4779 56.5096 35.5128 56.8695 35.5998C57.2114 35.6869 57.5173 35.8088 57.7692 35.9656L57.4273 36.7667C57.1754 36.61 56.9055 36.5055 56.6175 36.4358C56.3476 36.3662 56.0777 36.3313 55.8258 36.3313C55.5379 36.3313 55.286 36.3662 55.106 36.4358C54.9261 36.5055 54.7821 36.5926 54.6921 36.7145C54.6022 36.8364 54.5662 36.9583 54.5662 37.0976C54.5662 37.2718 54.6202 37.4111 54.7461 37.5156C54.8721 37.6201 55.034 37.7072 55.232 37.7594C55.4299 37.8117 55.6638 37.8813 55.8978 37.9336C56.1497 37.9858 56.3836 38.0555 56.6355 38.1252C56.8695 38.1948 57.1034 38.2993 57.3013 38.4038C57.4993 38.5257 57.6612 38.6651 57.7872 38.8566C57.9131 39.0482 57.9671 39.292 57.9671 39.5881C57.9671 39.8842 57.8771 40.1628 57.7152 40.4241C57.5532 40.6853 57.2833 40.8769 56.9414 41.0337C56.5995 41.1556 56.1497 41.2426 55.6279 41.2426Z" fill="white"/>
<path d="M61.3501 41.1556H60.2704V35.5476H61.3501V41.1556ZM64.4271 38.7522H61.2601V37.8639H64.4271V38.7522ZM64.3551 35.5476H65.4168V41.1556H64.3551V35.5476Z" fill="white"/>
<path d="M68.2239 41.1556V35.5476H69.3035V41.1556H68.2239Z" fill="white"/>
<path d="M76.7172 41.1556H75.6376V35.5476H79.8662V36.4358H76.7172V41.1556ZM76.6272 38.1426H79.5063V39.0134H76.6272V38.1426Z" fill="white"/>
<path d="M84.6347 41.2427C83.843 41.2427 83.2312 41.0337 82.7813 40.5983C82.3315 40.1629 82.1155 39.5359 82.1155 38.7173V35.565H83.1952V38.6825C83.1952 39.2572 83.3211 39.6752 83.5731 39.9365C83.825 40.1977 84.1849 40.337 84.6527 40.337C85.1206 40.337 85.4805 40.1977 85.7324 39.9365C85.9843 39.6752 86.1103 39.2572 86.1103 38.6825V35.565H87.1719V38.7173C87.1719 39.5359 86.956 40.1629 86.5061 40.5983C86.0563 41.0163 85.4265 41.2427 84.6347 41.2427Z" fill="white"/>
<path d="M91.7245 41.2426C91.2746 41.2426 90.8428 41.173 90.4289 41.0511C90.015 40.9292 89.6911 40.7724 89.4392 40.5634L89.8171 39.7623C90.051 39.9364 90.3389 40.0932 90.6808 40.1977C91.0227 40.3196 91.3646 40.3718 91.7245 40.3718C92.0304 40.3718 92.2823 40.337 92.4623 40.2673C92.6422 40.1977 92.7862 40.1106 92.8761 40.0061C92.9661 39.9016 93.0021 39.7797 93.0021 39.6404C93.0021 39.4662 92.9301 39.3269 92.8042 39.2224C92.6782 39.1179 92.5163 39.0308 92.3183 38.9786C92.1204 38.9089 91.8864 38.8566 91.6525 38.8044C91.4006 38.7521 91.1667 38.6825 90.9148 38.6128C90.6628 38.5432 90.4469 38.4387 90.249 38.3342C90.051 38.2123 89.8891 38.0729 89.7631 37.8813C89.6372 37.6898 89.5832 37.4459 89.5832 37.1499C89.5832 36.8538 89.6731 36.5577 89.8351 36.3139C89.997 36.0527 90.267 35.8611 90.6089 35.7043C90.9507 35.5476 91.3826 35.4779 91.9224 35.4779C92.2643 35.4779 92.6062 35.5128 92.9661 35.5998C93.308 35.6869 93.6139 35.8088 93.8658 35.9656L93.5239 36.7667C93.272 36.61 93.0021 36.5055 92.7142 36.4358C92.4443 36.3662 92.1744 36.3313 91.9224 36.3313C91.6345 36.3313 91.3826 36.3662 91.2027 36.4358C91.0227 36.5055 90.8788 36.5926 90.7888 36.7145C90.6988 36.8364 90.6628 36.9583 90.6628 37.0976C90.6628 37.2718 90.7168 37.4111 90.8428 37.5156C90.9687 37.6201 91.1307 37.7072 91.3286 37.7594C91.5266 37.8117 91.7605 37.8813 91.9944 37.9336C92.2463 37.9858 92.4803 38.0555 92.7322 38.1252C92.9661 38.1948 93.2 38.2993 93.398 38.4038C93.5959 38.5257 93.7579 38.6651 93.8838 38.8566C94.0098 39.0482 94.0638 39.292 94.0638 39.5881C94.0638 39.8842 93.9738 40.1628 93.8118 40.4241C93.6499 40.6853 93.38 40.8769 93.0381 41.0337C92.6782 41.1556 92.2463 41.2426 91.7245 41.2426Z" fill="white"/>
<path d="M96.367 41.1556V35.5476H97.4467V41.1556H96.367Z" fill="white"/>
<path d="M102.971 41.2426C102.521 41.2426 102.107 41.173 101.729 41.0337C101.351 40.8943 101.01 40.6853 100.74 40.4241C100.452 40.1628 100.236 39.8494 100.092 39.501C99.9299 39.1527 99.8579 38.7696 99.8579 38.3516C99.8579 37.9336 99.9299 37.5504 100.092 37.2021C100.254 36.8538 100.47 36.5403 100.74 36.2965C101.028 36.0352 101.351 35.8437 101.729 35.6869C102.107 35.5476 102.521 35.4779 102.971 35.4779C103.421 35.4779 103.835 35.5476 104.213 35.6869C104.59 35.8263 104.914 36.0352 105.202 36.2791C105.472 36.5403 105.706 36.8364 105.85 37.2021C106.012 37.5504 106.084 37.9336 106.084 38.3516C106.084 38.7696 106.012 39.1527 105.85 39.501C105.688 39.8494 105.472 40.1628 105.202 40.4241C104.932 40.6853 104.59 40.8943 104.213 41.0337C103.835 41.1556 103.421 41.2426 102.971 41.2426ZM102.971 40.3196C103.259 40.3196 103.529 40.2673 103.781 40.1803C104.033 40.0758 104.249 39.9539 104.429 39.7797C104.608 39.6055 104.752 39.3965 104.86 39.1527C104.968 38.9089 105.022 38.6477 105.022 38.3516C105.022 38.0555 104.968 37.7943 104.878 37.5504C104.77 37.3066 104.644 37.0976 104.446 36.9235C104.267 36.7493 104.051 36.61 103.799 36.5229C103.547 36.4184 103.277 36.3836 102.989 36.3836C102.701 36.3836 102.431 36.4358 102.179 36.5229C101.927 36.6274 101.711 36.7493 101.531 36.9409C101.351 37.115 101.208 37.324 101.1 37.5679C100.992 37.8117 100.938 38.0729 100.938 38.3516C100.938 38.6302 100.992 38.8915 101.1 39.1353C101.208 39.3791 101.351 39.5881 101.531 39.7623C101.711 39.9364 101.927 40.0758 102.179 40.1803C102.395 40.2673 102.665 40.3196 102.971 40.3196Z" fill="white"/>
<path d="M108.459 41.1556V35.5476H109.341L112.976 39.8668H112.544V35.5476H113.606V41.1556H112.724L109.107 36.8364H109.539V41.1556H108.459Z" fill="white"/>
</svg>
