<?xml version="1.0" encoding="UTF-8" standalone="no"?>
<!-- Created with Inkscape (http://www.inkscape.org/) -->

<svg
   version="1.1"
   id="svg64"
   width="800"
   height="800"
   viewBox="0 0 800 800"
   xmlns="http://www.w3.org/2000/svg"
   xmlns:svg="http://www.w3.org/2000/svg">
  <defs
     id="defs68">
    <clipPath
       clipPathUnits="userSpaceOnUse"
       id="clipPath80">
      <path
         d="M 0,600 H 600 V 0 H 0 Z"
         id="path78" />
    </clipPath>
  </defs>
  <g
     id="g72"
     transform="matrix(1.3333333,0,0,-1.3333333,-78.564264,721.43598)">
    <g
       id="g74"
       style="display:inline"
       transform="matrix(1.293807,0,0,1.293807,-29.219155,-147.06511)">
      <g
         id="g76"
         clip-path="url(#clipPath80)">
        <g
           id="g82"
           transform="translate(300.0002,519.8875)">
          <path
             d="m 0,0 c -121.441,0 -219.888,-98.447 -219.888,-219.888 0,-121.44 98.447,-219.887 219.888,-219.887 121.44,0 219.888,98.447 219.888,219.887 C 219.888,-98.447 121.44,0 0,0"
             style="fill:#ffffff;fill-opacity:1;fill-rule:nonzero;stroke:none"
             id="path84" />
        </g>
        <g
           id="g86"
           transform="translate(300.0002,526.077)">
          <path
             d="m 0,0 c -124.859,0 -226.077,-101.218 -226.077,-226.077 0,-124.859 101.218,-226.077 226.077,-226.077 124.859,0 226.077,101.218 226.077,226.077 C 226.077,-101.218 124.859,0 0,0 m 0,-12 c 28.905,0 56.94,-5.658 83.325,-16.818 25.49,-10.782 48.386,-26.219 68.05,-45.884 19.665,-19.664 35.102,-42.559 45.884,-68.05 11.159,-26.385 16.818,-54.419 16.818,-83.325 0,-28.905 -5.659,-56.94 -16.818,-83.325 -10.782,-25.491 -26.219,-48.386 -45.884,-68.05 -19.664,-19.665 -42.56,-35.102 -68.05,-45.884 -26.385,-11.16 -54.42,-16.818 -83.325,-16.818 -28.906,0 -56.94,5.658 -83.325,16.818 -25.491,10.782 -48.386,26.219 -68.051,45.884 -19.664,19.664 -35.102,42.559 -45.883,68.05 -11.16,26.385 -16.818,54.42 -16.818,83.325 0,28.906 5.658,56.94 16.818,83.325 10.781,25.491 26.219,48.386 45.883,68.05 19.665,19.665 42.56,35.102 68.051,45.884 C -56.94,-17.658 -28.906,-12 0,-12"
             style="fill:#000000;fill-opacity:1;fill-rule:nonzero;stroke:none"
             id="path88" />
        </g>
        <g
           id="g90"
           transform="translate(294.0017,501.472)">
          <path
             d="m 0,0 h 12 l -0.003,-402.944 h -12 z"
             style="fill:#ffffff;fill-opacity:1;fill-rule:nonzero;stroke:none"
             id="path92" />
        </g>
        <g
           id="g94"
           transform="translate(306.0017,302.1819)">
          <path
             d="M 0,0 V -0.19 L 0.165,-0.285 Z"
             style="fill:#000000;fill-opacity:1;fill-rule:nonzero;stroke:none"
             id="path96" />
        </g>
        <g
           id="g98"
           transform="translate(218.1281,127.9651)">
          <path
             d="m 0,0 c -8.095,0 -16.107,0.782 -23.812,2.223 29.08,-18.136 63.149,-29.014 99.684,-30.091 l 0.001,76.481 C 72.235,21.891 48.127,0 0,0"
             style="fill:#000000;fill-opacity:1;fill-rule:nonzero;stroke:none"
             id="path100" />
        </g>
        <g
           id="g102"
           transform="translate(306.0017,308.9221)">
          <path
             d="M 0,0 164.813,95.155 C 130.665,151.08 69.825,188.921 0.001,190.98 Z"
             style="fill:#000000;fill-opacity:1;fill-rule:nonzero;stroke:none"
             id="path104" />
        </g>
        <g
           id="g106"
           transform="translate(306.0017,288.1355)">
          <path
             d="m 0,0 -0.001,-188.039 c 68.918,2.032 129.077,38.929 163.464,93.664 z"
             style="fill:#000000;fill-opacity:1;fill-rule:nonzero;stroke:none"
             id="path108" />
        </g>
        <g
           id="g110"
           transform="translate(312.0002,298.5286)">
          <path
             d="M 0,0 163.546,-94.423 C 179.133,-65.951 188,-33.277 188,1.471 c 0,33.839 -8.416,65.708 -23.25,93.648 z"
             style="fill:#000000;fill-opacity:1;fill-rule:nonzero;stroke:none"
             id="path112" />
        </g>
        <g
           id="g114"
           transform="translate(150.4138,289.4339)">
          <path
             d="m 0,0 c 8.329,-66.23 128.983,-33.632 128.983,-93.493 0,-2.391 -0.254,-4.719 -0.677,-6.994 -9.928,51.826 -128.773,20.731 -128.773,93.72 0,2.285 0.189,4.536 0.467,6.767 m 41.583,44.085 c 8.949,2.58 19.355,4.06 31.415,4.06 18.441,0 37.465,-4.63 52.526,-12.5 0,0 0,-0.01 -0.01,-0.02 v -0.01 c 0,-0.01 -0.01,-0.03 -0.02,-0.05 -0.562,-1.27 -1.204,-2.54 -1.947,-3.81 -1.434,-2.52 -3.251,-5.01 -5.498,-7.41 -14.489,7.11 -30.492,10.52 -45.051,10.52 -22.205,0 -37.636,-5.66 -47.028,-14.55 -2.789,1.43 -5.318,2.85 -7.545,4.19 4.144,8.33 11.749,15.22 23.158,19.58 m 25.827,-191.96 c 13.888,0 25.196,2.003 34.189,5.463 25.925,7.77 39.428,24.819 41.988,44.422 l 0.001,131.569 c -3.577,-26.096 -27.137,-47.464 -74.142,-47.464 -30.814,0 -60.433,11.51 -75.544,28.05 l 6.813,11.22 c 1.877,-1.95 3.973,-3.85 6.262,-5.66 2.498,-1.99 5.237,-3.88 8.157,-5.65 1.334,-0.81 2.699,-1.59 4.103,-2.35 h 0.011 c 13.986,-7.49 31.626,-12.32 49.897,-12.32 13.575,0 24.623,1.95 33.412,5.34 2.92,0.87 5.669,1.87 8.268,2.98 0.231,0.1 0.451,0.19 0.672,0.29 6.572,2.86 12.101,6.44 16.636,10.59 1.585,1.42 3.04,2.93 4.364,4.5 2.268,2.63 4.185,5.43 5.76,8.36 2.802,5.188 4.571,10.791 5.331,16.641 l 0.001,162.363 c -26.444,-0.779 -51.596,-6.695 -74.501,-16.779 0.963,0.019 1.919,0.045 2.904,0.045 10.74,0 21.68,-1.57 31.91,-4.44 10.23,-2.86 19.77,-7.02 27.71,-12.19 v -16.18 c -3.449,2.37 -8.73,5.85 -9.21,6.16 -15.819,9.04 -34.029,13.36 -50.41,13.36 -36,0 -54.22,-14.87 -57.69,-34.26 -0.42,2.24 -0.659,4.61 -0.659,7.17 0,1.375 0.069,2.735 0.203,4.077 C 9.223,153.158 4.803,148.669 0.601,143.98 12.071,86.308 115.173,109.479 127.731,63.905 v -0.01 c 0.823,-2.96 1.254,-6.21 1.254,-9.8 0,-0.49 -0.009,-0.97 -0.04,-1.46 v -0.14 c -0.08,-1.83 -0.31,-3.63 -0.642,-5.4 -9.923,51.83 -128.771,20.73 -128.771,93.72 0,0.676 0.021,1.349 0.051,2.018 -31.11,-35.254 -49.997,-81.552 -49.997,-132.267 0,-54.317 21.664,-103.567 56.81,-139.609 15.307,-11.109 37.647,-18.832 61.014,-18.832"
             style="fill:#000000;fill-opacity:1;fill-rule:nonzero;stroke:none"
             id="path116" />
        </g>
      </g>
    </g>
  </g>
</svg>
